<svg version="1.1" id="Layer_1" xmlns="http://www.w3.org/2000/svg" xmlns:xlink="http://www.w3.org/1999/xlink" x="0px" y="0px"
	 width="100%" viewBox="1 1 872 1210" enable-background="new 0 0 880 1212" xml:space="preserve">
<path fill="#C27E7F" opacity="1.000000" stroke="none" 
	d="
M1.000000,425.000000 
	C1.000000,411.645782 1.000000,398.291534 1.379677,384.464417 
	C5.090464,382.915527 6.988276,381.035522 6.093941,377.161133 
	C5.876955,376.221130 6.620556,375.059387 7.205802,374.216064 
	C8.770701,380.270905 13.050778,382.164581 18.324318,383.703461 
	C23.535816,385.224182 28.384449,388.005035 33.368233,390.285583 
	C41.072178,393.810883 48.460785,398.452026 56.519764,400.670593 
	C67.482086,403.688385 79.085121,407.086609 90.174782,406.410095 
	C119.673386,404.610626 148.192459,396.994568 176.055496,387.145813 
	C182.361771,384.916779 186.473206,380.617493 189.255371,374.427246 
	C197.230789,356.682068 205.588425,339.108582 213.817139,321.477509 
	C215.605103,317.646637 217.482162,313.857361 219.538681,309.591522 
	C217.742401,309.713501 216.775909,309.779114 215.867432,309.507690 
	C220.586838,303.553436 225.161133,297.861145 229.929947,292.336700 
	C237.178223,283.939850 245.064163,276.042847 251.774170,267.243378 
	C262.958038,252.576935 269.022614,235.213745 275.823395,218.294388 
	C276.802368,215.858749 277.523895,213.306168 278.659332,210.949722 
	C280.811432,206.483383 283.048004,202.047379 285.477600,197.727051 
	C293.849060,182.840714 301.360809,167.351440 310.996887,153.326370 
	C322.716492,136.268768 336.049530,120.294075 349.103760,104.190689 
	C355.014618,96.899200 362.964294,91.120453 368.157623,83.420250 
	C375.899902,71.940681 387.241241,64.250862 396.434753,54.008247 
	C397.418213,55.766220 398.523560,57.539665 398.501770,59.299145 
	C398.474030,61.535084 397.532532,63.759693 396.781891,66.290825 
	C396.197693,67.513420 395.674774,68.402039 395.456299,69.360069 
	C390.147522,92.643478 386.518188,116.091988 389.222198,140.068665 
	C390.822906,154.262222 393.916595,168.121735 402.496613,179.885818 
	C408.566040,188.207703 415.323395,196.119904 425.995239,199.117157 
	C426.033539,199.177109 426.237549,199.151428 426.237549,199.151428 
	C426.237549,199.151428 426.046021,198.964661 425.852600,198.693573 
	C410.474762,187.309006 402.494629,172.005173 398.758301,153.835358 
	C394.444855,132.859146 396.490570,112.156189 400.028473,91.419411 
	C400.181885,90.520218 400.767090,89.694687 401.289459,88.525146 
	C402.362610,89.274460 403.259552,89.713943 403.915283,90.388031 
	C409.380096,96.005745 416.278992,98.587143 423.781250,100.003914 
	C439.744934,103.018600 454.502472,99.029083 468.683044,92.135933 
	C488.242310,82.628189 504.064392,68.071121 520.196899,54.043941 
	C527.607117,80.689796 514.762634,98.298920 495.108154,113.405807 
	C501.864380,110.010956 508.403625,106.426888 513.708374,101.510742 
	C519.060242,96.550911 523.187134,90.269272 527.880493,84.530304 
	C529.487000,86.928482 531.218323,89.513145 533.037354,92.422974 
	C534.099060,94.498901 535.073181,96.249672 536.037292,98.455948 
	C536.157410,110.190254 534.127747,120.929840 528.216431,130.735703 
	C526.015930,134.385956 523.950806,138.117813 521.569946,141.913208 
	C520.879578,142.344025 520.443115,142.674072 519.823242,143.152451 
	C519.409058,143.516388 519.203613,143.753922 518.994202,144.032013 
	C518.964783,144.050613 518.985046,143.975281 519.176819,143.836411 
	C519.616638,143.497086 519.825317,143.261642 520.280762,142.954407 
	C521.066040,142.641037 521.565063,142.364487 522.347717,141.911789 
	C533.308289,132.970566 539.832764,121.714050 542.073364,107.147652 
	C547.218201,111.885895 551.465820,115.795341 555.710693,119.707748 
	C567.422119,130.501724 581.960327,136.637238 595.835754,143.791580 
	C618.184448,155.314835 639.150757,168.692795 656.580688,187.057861 
	C658.910278,189.512497 660.838684,192.347931 663.473572,195.661880 
	C641.374451,203.672104 627.019043,217.649551 622.446777,240.238937 
	C623.466309,239.653702 624.135681,238.756989 624.594727,237.763168 
	C633.975952,217.453125 649.827332,205.835419 671.726990,201.628662 
	C690.982178,197.929871 710.038513,193.188370 729.307983,189.575867 
	C735.030151,188.503098 741.359741,188.833389 747.082764,190.056641 
	C754.600952,191.663635 756.035339,196.361908 753.850342,203.733765 
	C750.452759,215.196533 747.487610,226.799606 744.734131,238.436661 
	C743.053589,245.539474 743.281311,253.282028 740.635193,259.935120 
	C729.899536,286.927124 711.809814,307.361176 684.227112,318.013824 
	C673.581482,322.125244 662.407227,324.867706 652.417725,327.943268 
	C653.802979,327.943268 656.296875,328.062500 658.774109,327.910858 
	C661.427307,327.748413 664.065918,327.340820 666.708923,327.023285 
	C694.067322,323.736481 716.922546,312.262848 733.965149,290.136902 
	C735.446899,288.213257 737.342957,286.608765 739.345825,285.109009 
	C743.297913,290.072357 747.111023,294.668182 750.573792,299.514282 
	C761.284424,314.503967 772.525574,329.171783 782.313660,344.748199 
	C793.243591,362.141754 802.963196,380.307892 812.884521,398.316864 
	C816.546509,404.963898 819.126465,412.197510 822.475586,419.028473 
	C828.557617,431.433655 835.375427,443.507416 840.877502,456.158173 
	C845.132629,465.941803 848.220642,476.289276 851.144836,486.580048 
	C854.205322,497.350067 856.536499,508.332214 859.017639,519.260010 
	C860.346558,525.112793 861.392944,531.033325 862.435791,536.946411 
	C863.762512,544.468628 865.082825,551.996094 866.168762,559.555359 
	C867.079224,565.892944 867.649231,572.279419 868.121887,579.008484 
	C867.165039,584.319092 865.436340,589.340027 869.046387,594.080933 
	C869.150635,594.183716 869.073181,594.466064 869.034058,594.970093 
	C868.999634,598.287842 868.878357,601.108704 869.036621,603.913696 
	C869.321960,608.968384 869.774719,614.013672 870.090881,618.965698 
	C870.024231,618.868530 870.218384,618.734924 870.172424,619.223389 
	C870.081970,637.863953 870.075562,656.016357 869.950623,674.167969 
	C869.932556,676.792419 869.345459,679.412903 869.020691,682.500366 
	C869.041382,690.713440 869.063049,698.461243 869.106445,706.663025 
	C869.109558,711.615173 869.570251,716.177429 868.980408,720.599487 
	C867.342468,732.879578 865.285034,745.104187 863.359680,757.345398 
	C861.892212,766.675171 860.750671,776.077332 858.781128,785.301514 
	C856.355835,796.660583 853.203003,807.863647 850.399902,819.142944 
	C848.412842,827.138733 846.401550,835.130066 844.563599,843.160583 
	C843.606567,847.341858 843.334717,851.697998 842.169434,855.809631 
	C839.609741,864.840942 836.573242,873.736023 833.924866,882.743591 
	C830.447632,894.570129 827.531433,906.575623 823.655762,918.265991 
	C821.020508,926.214966 817.309387,933.827271 813.801697,941.462524 
	C808.063049,953.953918 801.828796,966.222839 796.292480,978.800720 
	C788.187561,997.214355 775.897583,1012.978821 764.652344,1029.367798 
	C758.678467,1038.074341 751.496643,1046.012329 744.374695,1053.856567 
	C733.592957,1065.731689 722.961487,1077.843018 711.208069,1088.709473 
	C698.338562,1100.607544 684.187012,1111.073730 668.055908,1118.484985 
	C666.439331,1119.227661 665.259216,1120.920288 662.805725,1123.141479 
	C665.852356,1123.541992 667.410034,1123.807129 668.979065,1123.942383 
	C675.740051,1124.525391 682.784485,1124.082031 689.191223,1125.898071 
	C696.026794,1127.835693 704.159485,1130.299316 708.390869,1135.335449 
	C719.687866,1148.781128 722.490234,1164.882690 717.108582,1182.044678 
	C714.843628,1189.267334 709.499512,1193.886475 704.085693,1198.547119 
	C693.711975,1207.477905 680.865479,1209.245850 668.035278,1210.462402 
	C663.993225,1210.845703 659.752991,1208.784790 655.566223,1208.056641 
	C634.455078,1204.385376 615.247314,1184.383057 611.355225,1163.316284 
	C609.291138,1152.143555 608.203247,1151.823242 597.139404,1155.222534 
	C586.875244,1158.375977 576.580261,1161.645508 566.075195,1163.745239 
	C552.677063,1166.423462 539.076050,1168.141357 525.520630,1169.960938 
	C516.032776,1171.234619 506.463470,1172.895874 496.950226,1172.779297 
	C477.384247,1172.539307 457.794342,1174.453369 438.222351,1171.322510 
	C424.089966,1169.061890 409.641327,1168.821777 395.470551,1166.746338 
	C375.949280,1163.887451 356.787811,1159.132446 338.335663,1152.064209 
	C314.097260,1142.779419 290.974426,1131.131958 270.360596,1115.280273 
	C258.534576,1106.186279 247.895325,1095.553955 236.656616,1085.688354 
	C232.347153,1081.905518 227.862000,1078.322388 223.437180,1074.672241 
	C223.066589,1074.366455 222.543671,1074.246460 222.093475,1074.035889 
	C213.420105,1069.979126 204.747925,1065.920044 196.073654,1061.865234 
	C187.672836,1057.938354 179.481628,1053.445801 170.817093,1050.228394 
	C158.575867,1045.683105 145.965668,1042.137817 133.546844,1038.062744 
	C117.526062,1032.805664 101.498718,1027.563232 85.551407,1022.089539 
	C75.819397,1018.749207 66.183495,1015.111328 56.599442,1011.364014 
	C51.095772,1009.212219 45.849144,1004.827393 40.364880,1004.616394 
	C34.076881,1004.374451 29.311668,1001.620239 24.202988,999.350403 
	C17.095036,996.192261 12.935843,990.248962 11.850883,982.476990 
	C11.027428,976.578186 10.665370,970.615723 9.880480,964.710510 
	C8.442259,953.889832 6.454226,943.125183 5.487471,932.266602 
	C5.051000,927.364136 5.150081,921.705139 11.481432,918.953857 
	C20.614437,918.377930 28.242794,921.623230 35.613358,925.654785 
	C50.749157,933.933838 66.302444,941.407166 83.728401,942.804749 
	C110.037666,944.914795 134.809982,937.437012 159.360977,929.194214 
	C163.141434,927.924927 163.897766,925.868835 162.562119,921.990295 
	C157.957535,908.619385 153.761246,895.108337 149.318756,881.680664 
	C148.878479,880.349854 147.818314,879.224243 146.916382,877.641296 
	C144.889572,871.960999 143.075424,866.611267 141.075378,861.331970 
	C138.087219,853.444519 134.792603,845.669128 131.968140,837.725281 
	C130.168350,832.663147 128.927902,827.397278 127.536293,822.196167 
	C125.958466,816.299133 124.428581,810.387573 122.995979,804.453857 
	C121.736641,799.237793 120.564049,793.997864 119.491623,788.740295 
	C118.171127,782.266663 116.862167,775.785400 115.797874,769.266663 
	C114.982140,764.270325 114.611732,759.202942 113.940399,754.180969 
	C112.600632,744.158630 110.793686,734.179321 109.940163,724.117798 
	C109.309341,716.681580 109.882744,709.143250 109.948624,701.136780 
	C109.965378,682.360168 109.953133,664.097168 109.905029,645.377197 
	C110.343231,633.859680 110.403320,622.761047 111.418083,611.750366 
	C112.279930,602.398926 114.335289,593.162231 115.681717,583.848633 
	C116.385849,578.977966 116.295456,573.968445 117.273819,569.166321 
	C119.471313,558.380310 121.990852,547.654846 124.613106,536.962097 
	C126.499977,529.267944 128.401627,521.542358 130.959732,514.057434 
	C133.676849,506.107239 137.264206,498.458252 140.285767,490.606232 
	C141.315857,487.929352 140.469162,485.671265 137.452026,484.700165 
	C133.664993,483.481232 129.909683,482.147522 126.080582,481.078705 
	C117.338303,478.638519 108.578575,476.255127 99.789619,473.989532 
	C92.126122,472.014038 84.402565,470.272736 76.724899,468.350647 
	C70.638756,466.827057 64.619110,465.022644 58.503872,463.633789 
	C47.735683,461.188171 36.829914,459.301392 26.148233,456.537231 
	C18.195152,454.479156 11.912307,450.043457 8.863276,441.663086 
	C6.772253,435.915863 3.657265,430.541199 1.000000,425.000000 
M428.456543,200.495743 
	C428.456543,200.495743 428.509277,200.478043 428.456543,200.495743 
M621.484192,243.498062 
	C621.484192,243.498062 621.511230,243.487106 621.484192,243.498062 
z"/>
<path fill="none" opacity="1.000000" stroke="none" 
	d="
M869.073242,594.466064 
	C869.073181,594.466064 869.150635,594.183716 869.068298,593.623352 
	C868.780640,588.256775 868.575317,583.450500 868.369995,578.644287 
	C867.649231,572.279419 867.079224,565.892944 866.168762,559.555359 
	C865.082825,551.996094 863.762512,544.468628 862.435791,536.946411 
	C861.392944,531.033325 860.346558,525.112793 859.017639,519.260010 
	C856.536499,508.332214 854.205322,497.350067 851.144836,486.580048 
	C848.220642,476.289276 845.132629,465.941803 840.877502,456.158173 
	C835.375427,443.507416 828.557617,431.433655 822.475586,419.028473 
	C819.126465,412.197510 816.546509,404.963898 812.884521,398.316864 
	C802.963196,380.307892 793.243591,362.141754 782.313660,344.748199 
	C772.525574,329.171783 761.284424,314.503967 750.573792,299.514282 
	C747.111023,294.668182 743.297913,290.072357 739.455933,284.736694 
	C742.294922,278.014313 746.235596,272.187714 748.141235,265.757965 
	C751.145813,255.620544 752.532715,245.016174 755.069153,234.724014 
	C757.609436,224.416672 760.504639,214.183044 763.652161,204.043686 
	C765.935913,196.686523 763.712646,190.915833 758.408020,186.071777 
	C749.055359,177.531113 737.947266,178.483902 726.794922,180.889435 
	C712.359802,184.003036 697.756531,186.645508 683.660583,190.923813 
	C672.633240,194.270752 665.325867,191.333054 659.651611,181.631470 
	C662.677856,173.378174 664.974121,165.131378 668.943420,157.788986 
	C674.658447,147.217194 682.415039,137.895004 687.099426,126.538322 
	C689.426392,120.896835 688.235596,117.507378 684.449158,114.430763 
	C681.704834,112.200859 678.258545,110.372414 674.837769,109.523163 
	C664.118835,106.862083 653.340881,107.983566 642.851135,110.886154 
	C635.354797,112.960480 628.085205,115.862099 620.734741,118.452316 
	C617.625549,119.547951 614.513367,120.666412 611.498840,121.993248 
	C604.250732,125.183548 597.059448,128.503128 589.535706,131.569733 
	C588.542725,131.109680 587.859253,130.850418 586.947998,130.360703 
	C583.133545,128.115646 579.546814,126.101051 575.968994,124.055580 
	C575.977844,124.024712 575.916077,124.042267 575.775146,123.737915 
	C573.314087,121.899017 570.882996,120.506821 568.695862,118.801651 
	C563.387573,114.663170 558.192749,110.379120 552.837769,105.871223 
	C552.121765,105.068085 551.520264,104.547455 550.822876,103.715828 
	C549.584106,102.142700 548.441284,100.880562 547.295349,99.660942 
	C547.292297,99.703453 547.377502,99.705460 547.261963,99.410332 
	C546.174622,98.306732 545.202881,97.498260 544.226196,96.728973 
	C544.221191,96.768173 544.299927,96.774956 544.239685,96.423935 
	C540.247803,87.769608 536.316223,79.466301 532.439819,70.941269 
	C532.443909,70.392700 532.271851,70.152496 531.958862,69.572998 
	C531.118286,65.432732 529.894592,61.752884 529.573120,57.995846 
	C529.110229,52.585728 528.183655,46.845833 529.434021,41.730392 
	C532.702271,28.358543 528.565125,17.154240 516.173096,11.289423 
	C510.061249,8.396854 503.456512,6.392197 496.900604,4.636063 
	C490.719269,2.980272 484.309357,2.177833 478.000000,1.000001 
	C612.315430,1.000000 746.630920,1.000000 880.973145,1.000000 
	C880.973145,404.928314 880.973145,808.856628 880.973145,1212.892456 
	C587.777466,1212.892456 294.554840,1212.892456 1.000000,1212.892456 
	C1.000000,950.645874 1.000000,688.291565 1.000000,425.468658 
	C3.657265,430.541199 6.772253,435.915863 8.863276,441.663086 
	C11.912307,450.043457 18.195152,454.479156 26.148233,456.537231 
	C36.829914,459.301392 47.735683,461.188171 58.503872,463.633789 
	C64.619110,465.022644 70.638756,466.827057 76.724899,468.350647 
	C84.402565,470.272736 92.126122,472.014038 99.789619,473.989532 
	C108.578575,476.255127 117.338303,478.638519 126.080582,481.078705 
	C129.909683,482.147522 133.664993,483.481232 137.452026,484.700165 
	C140.469162,485.671265 141.315857,487.929352 140.285767,490.606232 
	C137.264206,498.458252 133.676849,506.107239 130.959732,514.057434 
	C128.401627,521.542358 126.499977,529.267944 124.613106,536.962097 
	C121.990852,547.654846 119.471313,558.380310 117.273819,569.166321 
	C116.295456,573.968445 116.385849,578.977966 115.681717,583.848633 
	C114.335289,593.162231 112.279930,602.398926 111.418083,611.750366 
	C110.403320,622.761047 110.343231,633.859680 109.582428,645.525879 
	C109.003548,646.692322 108.456932,647.252808 108.456253,647.813965 
	C108.435547,664.792053 108.445282,681.770325 108.554047,698.747986 
	C108.560265,699.718323 109.444199,700.683044 109.919640,701.650391 
	C109.882744,709.143250 109.309341,716.681580 109.940163,724.117798 
	C110.793686,734.179321 112.600632,744.158630 113.940399,754.180969 
	C114.611732,759.202942 114.982140,764.270325 115.797874,769.266663 
	C116.862167,775.785400 118.171127,782.266663 119.491623,788.740295 
	C120.564049,793.997864 121.736641,799.237793 122.995979,804.453857 
	C124.428581,810.387573 125.958466,816.299133 127.536293,822.196167 
	C128.927902,827.397278 130.168350,832.663147 131.968140,837.725281 
	C134.792603,845.669128 138.087219,853.444519 141.075378,861.331970 
	C143.075424,866.611267 144.889572,871.960999 146.882202,878.015381 
	C148.141586,883.933716 145.503769,888.480042 140.473175,890.862000 
	C137.015106,892.499451 133.807144,894.670837 130.510925,896.642883 
	C124.463760,900.260681 119.369873,905.677917 111.653763,906.124695 
	C109.658310,906.240173 107.201187,906.825928 105.845451,908.124207 
	C99.025986,914.655273 89.820892,912.382996 82.028442,913.744507 
	C74.330360,915.089539 65.637268,911.278564 57.479889,909.316895 
	C47.811016,906.991760 38.385284,903.248291 28.607679,901.877075 
	C13.647282,899.778809 10.530028,904.115601 10.948074,915.987000 
	C10.983262,916.986206 11.006906,917.985779 11.035913,918.985168 
	C5.150081,921.705139 5.051000,927.364136 5.487471,932.266602 
	C6.454226,943.125183 8.442259,953.889832 9.880480,964.710510 
	C10.665370,970.615723 11.027428,976.578186 11.850883,982.476990 
	C12.935843,990.248962 17.095036,996.192261 24.202988,999.350403 
	C29.311668,1001.620239 34.076881,1004.374451 40.364880,1004.616394 
	C45.849144,1004.827393 51.095772,1009.212219 56.599442,1011.364014 
	C66.183495,1015.111328 75.819397,1018.749207 85.551407,1022.089539 
	C101.498718,1027.563232 117.526062,1032.805664 133.546844,1038.062744 
	C145.965668,1042.137817 158.575867,1045.683105 170.817093,1050.228394 
	C179.481628,1053.445801 187.672836,1057.938354 196.073654,1061.865234 
	C204.747925,1065.920044 213.420105,1069.979126 222.093475,1074.035889 
	C222.543671,1074.246460 223.066589,1074.366455 223.437180,1074.672241 
	C227.862000,1078.322388 232.347153,1081.905518 236.656616,1085.688354 
	C247.895325,1095.553955 258.534576,1106.186279 270.360596,1115.280273 
	C290.974426,1131.131958 314.097260,1142.779419 338.335663,1152.064209 
	C356.787811,1159.132446 375.949280,1163.887451 395.470551,1166.746338 
	C409.641327,1168.821777 424.089966,1169.061890 438.222351,1171.322510 
	C457.794342,1174.453369 477.384247,1172.539307 496.950226,1172.779297 
	C506.463470,1172.895874 516.032776,1171.234619 525.520630,1169.960938 
	C539.076050,1168.141357 552.677063,1166.423462 566.075195,1163.745239 
	C576.580261,1161.645508 586.875244,1158.375977 597.139404,1155.222534 
	C608.203247,1151.823242 609.291138,1152.143555 611.355225,1163.316284 
	C615.247314,1184.383057 634.455078,1204.385376 655.566223,1208.056641 
	C659.752991,1208.784790 663.993225,1210.845703 668.035278,1210.462402 
	C680.865479,1209.245850 693.711975,1207.477905 704.085693,1198.547119 
	C709.499512,1193.886475 714.843628,1189.267334 717.108582,1182.044678 
	C722.490234,1164.882690 719.687866,1148.781128 708.390869,1135.335449 
	C704.159485,1130.299316 696.026794,1127.835693 689.191223,1125.898071 
	C682.784485,1124.082031 675.740051,1124.525391 668.979065,1123.942383 
	C667.410034,1123.807129 665.852356,1123.541992 662.805725,1123.141479 
	C665.259216,1120.920288 666.439331,1119.227661 668.055908,1118.484985 
	C684.187012,1111.073730 698.338562,1100.607544 711.208069,1088.709473 
	C722.961487,1077.843018 733.592957,1065.731689 744.374695,1053.856567 
	C751.496643,1046.012329 758.678467,1038.074341 764.652344,1029.367798 
	C775.897583,1012.978821 788.187561,997.214355 796.292480,978.800720 
	C801.828796,966.222839 808.063049,953.953918 813.801697,941.462524 
	C817.309387,933.827271 821.020508,926.214966 823.655762,918.265991 
	C827.531433,906.575623 830.447632,894.570129 833.924866,882.743591 
	C836.573242,873.736023 839.609741,864.840942 842.169434,855.809631 
	C843.334717,851.697998 843.606567,847.341858 844.563599,843.160583 
	C846.401550,835.130066 848.412842,827.138733 850.399902,819.142944 
	C853.203003,807.863647 856.355835,796.660583 858.781128,785.301514 
	C860.750671,776.077332 861.892212,766.675171 863.359680,757.345398 
	C865.285034,745.104187 867.342468,732.879578 868.980408,720.599487 
	C869.570251,716.177429 869.109558,711.615173 869.384888,706.556519 
	C869.824646,705.475464 870.007751,704.954895 870.303833,704.170166 
	C870.329834,703.166809 870.242859,702.427490 870.234131,701.245117 
	C870.235840,694.546204 870.159241,688.290283 870.359741,681.745911 
	C871.098389,680.141541 871.955444,678.827637 871.961853,677.509460 
	C872.050171,659.346680 872.062012,641.183105 871.943542,623.020630 
	C871.934204,621.588379 870.819397,620.163330 870.218384,618.734924 
	C870.218384,618.734924 870.024231,618.868530 870.145874,618.490173 
	C870.306396,611.534790 870.416809,604.956665 870.323975,598.381531 
	C870.305542,597.070740 869.510254,595.770935 869.073242,594.466064 
z"/>
<path fill="none" opacity="1.000000" stroke="none" 
	d="
M396.055939,54.017509 
	C387.241241,64.250862 375.899902,71.940681 368.157623,83.420250 
	C362.964294,91.120453 355.014618,96.899200 349.103760,104.190689 
	C336.049530,120.294075 322.716492,136.268768 310.996887,153.326370 
	C301.360809,167.351440 293.849060,182.840714 285.477600,197.727051 
	C283.048004,202.047379 280.811432,206.483383 278.659332,210.949722 
	C277.523895,213.306168 276.802368,215.858749 275.823395,218.294388 
	C269.022614,235.213745 262.958038,252.576935 251.774170,267.243378 
	C245.064163,276.042847 237.178223,283.939850 229.929947,292.336700 
	C225.161133,297.861145 220.586838,303.553436 215.559113,309.654053 
	C204.020737,317.256653 192.458405,323.844543 181.805710,331.670563 
	C173.920547,337.463379 165.168350,340.568115 156.237015,343.737274 
	C151.232269,345.513153 146.371414,347.690704 141.414215,349.605682 
	C137.491791,351.120972 133.604919,352.841522 129.549835,353.869873 
	C125.070717,355.005737 120.389389,355.318451 115.850723,356.254425 
	C112.834084,356.876526 109.942444,358.567535 106.943237,358.712585 
	C101.150719,358.992676 95.319962,358.335419 89.508118,358.390503 
	C73.263275,358.544342 58.032879,354.506561 43.253506,348.033813 
	C37.957703,345.714447 32.344894,343.955811 26.719254,342.590088 
	C17.853615,340.437775 10.893439,343.782166 9.073057,351.898590 
	C7.465564,359.065857 7.572505,366.617615 6.922457,373.999603 
	C6.620556,375.059387 5.876955,376.221130 6.093941,377.161133 
	C6.988276,381.035522 5.090464,382.915527 1.379677,383.995758 
	C1.000000,256.400299 1.000000,128.800613 1.000000,1.000000 
	C151.020828,1.000000 301.041748,1.000000 451.327637,1.343794 
	C439.231781,3.732207 427.169678,6.628985 416.443573,13.552166 
	C404.262604,21.414389 396.269989,31.377806 399.202454,47.344315 
	C399.117767,48.135109 399.119690,48.592728 398.872925,49.262581 
	C397.768158,50.989048 396.912048,52.503277 396.055939,54.017509 
z"/>
<path fill="#9B6368" opacity="1.000000" stroke="none" 
	d="
M399.289062,47.011131 
	C396.269989,31.377806 404.262604,21.414389 416.443573,13.552166 
	C427.169678,6.628985 439.231781,3.732207 451.796295,1.343794 
	C460.354218,1.000000 468.708466,1.000000 477.531342,1.000001 
	C484.309357,2.177833 490.719269,2.980272 496.900604,4.636063 
	C503.456512,6.392197 510.061249,8.396854 516.173096,11.289423 
	C528.565125,17.154240 532.702271,28.358543 529.434021,41.730392 
	C528.183655,46.845833 529.110229,52.585728 529.573120,57.995846 
	C529.894592,61.752884 531.118286,65.432732 531.648315,69.391006 
	C530.886475,68.294708 530.569702,66.873512 529.917297,65.628143 
	C526.999268,60.057980 523.985596,54.537952 521.041748,48.622368 
	C521.527649,44.780525 524.023682,41.261101 520.857361,37.575630 
	C520.987427,36.826527 521.058655,36.397396 521.470947,35.911785 
	C526.437012,32.226276 527.347229,27.560730 523.974792,22.370928 
	C522.883240,23.699081 521.898071,24.897808 520.653442,25.889450 
	C514.875610,18.852591 507.292114,15.879773 499.079681,13.636187 
	C484.564453,9.670729 469.788910,9.727730 454.860718,9.579620 
	C453.469025,8.324210 452.297546,7.136419 450.878296,6.509091 
	C443.356171,3.184211 436.792084,7.757356 429.932129,9.413585 
	C425.885742,10.390512 425.021484,13.461958 426.899078,17.400505 
	C423.511383,19.447187 420.349854,21.244600 416.845154,22.900326 
	C411.590179,20.078972 407.595978,21.402449 405.427612,26.263004 
	C403.462677,30.667479 402.380402,35.472309 400.996918,40.126770 
	C400.323975,42.390751 399.851990,44.714455 399.289062,47.011131 
z"/>
<path fill="#9A5D61" opacity="1.000000" stroke="none" 
	d="
M7.205804,374.216064 
	C7.572505,366.617615 7.465564,359.065857 9.073057,351.898590 
	C10.893439,343.782166 17.853615,340.437775 26.719254,342.590088 
	C32.344894,343.955811 37.957703,345.714447 43.253506,348.033813 
	C58.032879,354.506561 73.263275,358.544342 89.508118,358.390503 
	C95.319962,358.335419 101.150719,358.992676 106.943237,358.712585 
	C109.942444,358.567535 112.834084,356.876526 115.850723,356.254425 
	C120.389389,355.318451 125.070717,355.005737 129.549835,353.869873 
	C133.604919,352.841522 137.491791,351.120972 141.414215,349.605682 
	C146.371414,347.690704 151.232269,345.513153 156.237015,343.737274 
	C165.168350,340.568115 173.920547,337.463379 181.805710,331.670563 
	C192.458405,323.844543 204.020737,317.256653 215.501083,309.991150 
	C216.775909,309.779114 217.742401,309.713501 219.538681,309.591522 
	C217.482162,313.857361 215.605103,317.646637 213.817139,321.477509 
	C205.588425,339.108582 197.230789,356.682068 189.255371,374.427246 
	C186.473206,380.617493 182.361771,384.916779 176.055496,387.145813 
	C148.192459,396.994568 119.673386,404.610626 90.174782,406.410095 
	C79.085121,407.086609 67.482086,403.688385 56.519764,400.670593 
	C48.460785,398.452026 41.072178,393.810883 33.368233,390.285583 
	C28.384449,388.005035 23.535816,385.224182 18.324318,383.703461 
	C13.050778,382.164581 8.770701,380.270905 7.205804,374.216064 
z"/>
<path fill="#9B5D61" opacity="1.000000" stroke="none" 
	d="
M11.481432,918.953857 
	C11.006906,917.985779 10.983262,916.986206 10.948074,915.987000 
	C10.530028,904.115601 13.647282,899.778809 28.607679,901.877075 
	C38.385284,903.248291 47.811016,906.991760 57.479889,909.316895 
	C65.637268,911.278564 74.330360,915.089539 82.028442,913.744507 
	C89.820892,912.382996 99.025986,914.655273 105.845451,908.124207 
	C107.201187,906.825928 109.658310,906.240173 111.653763,906.124695 
	C119.369873,905.677917 124.463760,900.260681 130.510925,896.642883 
	C133.807144,894.670837 137.015106,892.499451 140.473175,890.862000 
	C145.503769,888.480042 148.141586,883.933716 147.011673,878.377502 
	C147.818314,879.224243 148.878479,880.349854 149.318756,881.680664 
	C153.761246,895.108337 157.957535,908.619385 162.562119,921.990295 
	C163.897766,925.868835 163.141434,927.924927 159.360977,929.194214 
	C134.809982,937.437012 110.037666,944.914795 83.728401,942.804749 
	C66.302444,941.407166 50.749157,933.933838 35.613358,925.654785 
	C28.242794,921.623230 20.614437,918.377930 11.481432,918.953857 
z"/>
<path fill="#9B5F62" opacity="1.000000" stroke="none" 
	d="
M659.669006,182.042023 
	C665.325867,191.333054 672.633240,194.270752 683.660583,190.923813 
	C697.756531,186.645508 712.359802,184.003036 726.794922,180.889435 
	C737.947266,178.483902 749.055359,177.531113 758.408020,186.071777 
	C763.712646,190.915833 765.935913,196.686523 763.652161,204.043686 
	C760.504639,214.183044 757.609436,224.416672 755.069153,234.724014 
	C752.532715,245.016174 751.145813,255.620544 748.141235,265.757965 
	C746.235596,272.187714 742.294922,278.014313 739.156738,284.483704 
	C737.342957,286.608765 735.446899,288.213257 733.965149,290.136902 
	C716.922546,312.262848 694.067322,323.736481 666.708923,327.023285 
	C664.065918,327.340820 661.427307,327.748413 658.774109,327.910858 
	C656.296875,328.062500 653.802979,327.943268 652.417725,327.943268 
	C662.407227,324.867706 673.581482,322.125244 684.227112,318.013824 
	C711.809814,307.361176 729.899536,286.927124 740.635193,259.935120 
	C743.281311,253.282028 743.053589,245.539474 744.734131,238.436661 
	C747.487610,226.799606 750.452759,215.196533 753.850342,203.733765 
	C756.035339,196.361908 754.600952,191.663635 747.082764,190.056641 
	C741.359741,188.833389 735.030151,188.503098 729.307983,189.575867 
	C710.038513,193.188370 690.982178,197.929871 671.726990,201.628662 
	C649.827332,205.835419 633.975952,217.453125 624.594727,237.763168 
	C624.135681,238.756989 623.466309,239.653702 622.446777,240.238937 
	C627.019043,217.649551 641.374451,203.672104 663.473572,195.661880 
	C660.838684,192.347931 658.910278,189.512497 656.580688,187.057861 
	C639.150757,168.692795 618.184448,155.314835 595.835754,143.791580 
	C581.960327,136.637238 567.422119,130.501724 555.710693,119.707748 
	C551.465820,115.795341 547.218201,111.885895 542.073364,107.147652 
	C539.832764,121.714050 533.308289,132.970566 522.287903,141.842041 
	C521.944519,141.948425 521.823914,141.812439 521.823914,141.812439 
	C523.950806,138.117813 526.015930,134.385956 528.216431,130.735703 
	C534.127747,120.929840 536.157410,110.190254 536.451355,98.450928 
	C539.350220,97.585243 541.825073,97.180099 544.299927,96.774956 
	C544.299927,96.774956 544.221191,96.768173 544.265808,97.082687 
	C545.332764,98.166626 546.355164,98.936043 547.377502,99.705460 
	C547.377502,99.705460 547.292297,99.703453 547.307983,100.014374 
	C548.522095,101.559135 549.720398,102.792976 550.918762,104.026817 
	C551.520264,104.547455 552.121765,105.068085 552.936707,106.194321 
	C553.945679,109.084969 554.337402,111.638069 555.633667,113.590752 
	C557.467285,116.353050 559.510681,119.690376 562.292236,120.941689 
	C566.455811,122.814751 571.338989,123.088364 575.916077,124.042267 
	C575.916077,124.042267 575.977844,124.024712 576.076538,124.376709 
	C579.673462,126.999420 581.765198,131.909103 587.175842,130.591156 
	C587.859253,130.850418 588.542725,131.109680 589.737061,131.808868 
	C616.135010,145.017181 640.868103,159.394379 659.669006,182.042023 
z"/>
<path fill="#995B5F" opacity="1.000000" stroke="none" 
	d="
M520.798523,37.895603 
	C524.023682,41.261101 521.527649,44.780525 520.859375,48.922779 
	C520.425293,50.961784 520.208801,52.322926 519.992371,53.684067 
	C504.064392,68.071121 488.242310,82.628189 468.683044,92.135933 
	C454.502472,99.029083 439.744934,103.018600 423.781250,100.003914 
	C416.278992,98.587143 409.380096,96.005745 403.915283,90.388031 
	C403.259552,89.713943 402.362610,89.274460 401.289459,88.525146 
	C400.767090,89.694687 400.181885,90.520218 400.028473,91.419411 
	C396.490570,112.156189 394.444855,132.859146 398.758301,153.835358 
	C402.494629,172.005173 410.474762,187.309006 425.829529,198.715942 
	C425.999847,199.009369 425.956909,199.057205 425.956909,199.057205 
	C415.323395,196.119904 408.566040,188.207703 402.496613,179.885818 
	C393.916595,168.121735 390.822906,154.262222 389.222198,140.068665 
	C386.518188,116.091988 390.147522,92.643478 395.456299,69.360069 
	C395.674774,68.402039 396.197693,67.513420 397.139160,66.355209 
	C398.936890,68.291985 400.001953,70.591469 401.465179,72.601021 
	C402.671509,74.257706 404.349335,75.571037 405.937500,77.372559 
	C409.534210,86.676125 417.020782,90.266563 425.684906,91.946342 
	C436.299194,94.004227 446.492920,91.679985 456.490723,88.239326 
	C473.384460,82.425468 486.619354,70.871834 500.343658,60.116386 
	C508.357758,53.835876 515.849548,47.022362 520.798523,37.895603 
z"/>
<path fill="#9B5F62" opacity="1.000000" stroke="none" 
	d="
M520.196899,54.043941 
	C520.208801,52.322926 520.425293,50.961784 520.824097,49.300228 
	C523.985596,54.537952 526.999268,60.057980 529.917297,65.628143 
	C530.569702,66.873512 530.886475,68.294708 531.668335,69.816940 
	C532.271851,70.152496 532.443909,70.392700 532.369934,71.395470 
	C532.491394,73.676399 532.370850,75.460281 533.050171,76.854416 
	C535.562988,82.011391 535.137085,87.032333 532.949707,92.097816 
	C531.218323,89.513145 529.487000,86.928482 527.880493,84.530304 
	C523.187134,90.269272 519.060242,96.550911 513.708374,101.510742 
	C508.403625,106.426888 501.864380,110.010956 495.108154,113.405807 
	C514.762634,98.298920 527.607117,80.689796 520.196899,54.043941 
z"/>
<path fill="#9B6368" opacity="1.000000" stroke="none" 
	d="
M405.818207,77.036537 
	C404.349335,75.571037 402.671509,74.257706 401.465179,72.601021 
	C400.001953,70.591469 398.936890,68.291985 397.342285,66.053574 
	C397.532532,63.759693 398.474030,61.535084 398.501770,59.299145 
	C398.523560,57.539665 397.418213,55.766220 396.434753,54.008247 
	C396.912048,52.503277 397.768158,50.989048 399.145142,49.446136 
	C403.636597,52.755379 407.797363,55.984978 406.583008,62.154140 
	C406.534393,62.401047 406.878113,62.725185 407.010803,63.435005 
	C406.594452,68.249954 406.206329,72.643250 405.818207,77.036537 
z"/>
<path fill="#9B6368" opacity="1.000000" stroke="none" 
	d="
M533.037354,92.422981 
	C535.137085,87.032333 535.562988,82.011391 533.050171,76.854416 
	C532.370850,75.460281 532.491394,73.676399 532.314697,71.617203 
	C536.316223,79.466301 540.247803,87.769608 544.239685,96.423935 
	C541.825073,97.180099 539.350220,97.585243 536.461304,97.995407 
	C535.073181,96.249672 534.099060,94.498901 533.037354,92.422981 
z"/>
<path fill="#B07C7D" opacity="1.000000" stroke="none" 
	d="
M870.172363,619.223389 
	C870.819397,620.163330 871.934204,621.588379 871.943542,623.020630 
	C872.062012,641.183105 872.050171,659.346680 871.961853,677.509460 
	C871.955444,678.827637 871.098389,680.141541 870.094482,681.743958 
	C869.375244,682.032104 869.198425,682.033691 869.021667,682.035217 
	C869.345459,679.412903 869.932556,676.792419 869.950623,674.167969 
	C870.075562,656.016357 870.081970,637.863953 870.172363,619.223389 
z"/>
<path fill="#A06566" opacity="1.000000" stroke="none" 
	d="
M109.948639,701.136780 
	C109.444199,700.683044 108.560265,699.718323 108.554047,698.747986 
	C108.445282,681.770325 108.435547,664.792053 108.456253,647.813965 
	C108.456932,647.252808 109.003548,646.692322 109.618286,645.982849 
	C109.953133,664.097168 109.965378,682.360168 109.948639,701.136780 
z"/>
<path fill="#A06869" opacity="1.000000" stroke="none" 
	d="
M868.121948,579.008484 
	C868.575317,583.450500 868.780640,588.256775 868.964111,593.520569 
	C865.436340,589.340027 867.165039,584.319092 868.121948,579.008484 
z"/>
<path fill="#A06869" opacity="1.000000" stroke="none" 
	d="
M869.034058,594.970093 
	C869.510254,595.770935 870.305542,597.070740 870.323975,598.381531 
	C870.416809,604.956665 870.306396,611.534790 870.212524,618.587341 
	C869.774719,614.013672 869.321960,608.968384 869.036621,603.913696 
	C868.878357,601.108704 868.999634,598.287842 869.034058,594.970093 
z"/>
<path fill="#A06565" opacity="1.000000" stroke="none" 
	d="
M869.020691,682.500366 
	C869.198425,682.033691 869.375244,682.032104 869.817383,682.032471 
	C870.159241,688.290283 870.235840,694.546204 870.173340,701.701904 
	C870.086426,703.212585 870.138611,703.823425 870.190857,704.434265 
	C870.007751,704.954895 869.824646,705.475464 869.363098,706.102600 
	C869.063049,698.461243 869.041382,690.713440 869.020691,682.500366 
z"/>
<path fill="#9B5F62" opacity="1.000000" stroke="none" 
	d="
M520.006714,143.004120 
	C520.443115,142.674072 520.879578,142.344025 521.569946,141.913208 
	C521.823914,141.812439 521.944519,141.948425 522.004333,142.018188 
	C521.565063,142.364487 521.066040,142.641037 520.283447,142.958633 
	C520.000000,142.999680 520.006714,143.004120 520.006714,143.004120 
z"/>
<path fill="#9B5F62" opacity="1.000000" stroke="none" 
	d="
M519.997253,142.995453 
	C519.825317,143.261642 519.616638,143.497086 519.185303,143.847153 
	C519.001953,143.996765 519.023621,144.013397 519.023621,144.013397 
	C519.203613,143.753922 519.409058,143.516388 519.823242,143.152451 
	C520.006714,143.004120 520.000000,142.999680 519.997253,142.995453 
z"/>
<path fill="#9B5F62" opacity="1.000000" stroke="none" 
	d="
M518.993530,143.986023 
	C518.985046,143.975281 518.964783,144.050613 518.994202,144.032013 
	C519.023621,144.013397 519.001953,143.996765 518.993530,143.986023 
z"/>
<path fill="#995B5F" opacity="1.000000" stroke="none" 
	d="
M426.022949,198.987015 
	C426.046021,198.964661 426.237549,199.151428 426.237549,199.151428 
	C426.237549,199.151428 426.033539,199.177109 425.995239,199.117157 
	C425.956909,199.057205 425.999847,199.009369 426.022949,198.987015 
z"/>
<path fill="#995B5F" opacity="1.000000" stroke="none" 
	d="
M428.482910,200.486893 
	C428.509277,200.478043 428.456543,200.495743 428.482910,200.486893 
z"/>
<path fill="#9B5F62" opacity="1.000000" stroke="none" 
	d="
M621.497681,243.492584 
	C621.511230,243.487106 621.484192,243.498062 621.497681,243.492584 
z"/>
<path fill="#C38181" opacity="1.000000" stroke="none" 
	d="
M659.651611,181.631470 
	C640.868103,159.394379 616.135010,145.017181 590.046631,132.009674 
	C597.059448,128.503128 604.250732,125.183548 611.498840,121.993248 
	C614.513367,120.666412 617.625549,119.547951 620.734741,118.452316 
	C628.085205,115.862099 635.354797,112.960480 642.851135,110.886154 
	C653.340881,107.983566 664.118835,106.862083 674.837769,109.523163 
	C678.258545,110.372414 681.704834,112.200859 684.449158,114.430763 
	C688.235596,117.507378 689.426392,120.896835 687.099426,126.538322 
	C682.415039,137.895004 674.658447,147.217194 668.943420,157.788986 
	C664.974121,165.131378 662.677856,173.378174 659.651611,181.631470 
z"/>
<path fill="#9B6368" opacity="1.000000" stroke="none" 
	d="
M575.775146,123.737915 
	C571.338989,123.088364 566.455811,122.814751 562.292236,120.941689 
	C559.510681,119.690376 557.467285,116.353050 555.633667,113.590752 
	C554.337402,111.638069 553.945679,109.084969 553.051147,106.476822 
	C558.192749,110.379120 563.387573,114.663170 568.695862,118.801651 
	C570.882996,120.506821 573.314087,121.899017 575.775146,123.737915 
z"/>
<path fill="#9B6368" opacity="1.000000" stroke="none" 
	d="
M586.947998,130.360703 
	C581.765198,131.909103 579.673462,126.999420 576.067749,124.407578 
	C579.546814,126.101051 583.133545,128.115646 586.947998,130.360703 
z"/>
<path fill="#9B6368" opacity="1.000000" stroke="none" 
	d="
M550.822876,103.715828 
	C549.720398,102.792976 548.522095,101.559135 547.311035,99.971863 
	C548.441284,100.880562 549.584106,102.142700 550.822876,103.715828 
z"/>
<path fill="#9B6368" opacity="1.000000" stroke="none" 
	d="
M547.261963,99.410332 
	C546.355164,98.936043 545.332764,98.166626 544.270752,97.043495 
	C545.202881,97.498260 546.174622,98.306732 547.261963,99.410332 
z"/>
<path fill="#B07C7D" opacity="1.000000" stroke="none" 
	d="
M870.303833,704.170166 
	C870.138611,703.823425 870.086426,703.212585 870.095032,702.145020 
	C870.242859,702.427490 870.329834,703.166809 870.303833,704.170166 
z"/>
<path fill="#995B5F" opacity="1.000000" stroke="none" 
	d="
M407.039062,63.013344 
	C406.878113,62.725185 406.534393,62.401047 406.583008,62.154140 
	C407.797363,55.984978 403.636597,52.755379 399.393799,49.233898 
	C399.119690,48.592728 399.117767,48.135109 399.202454,47.344311 
	C399.851990,44.714455 400.323975,42.390751 400.996918,40.126770 
	C402.380402,35.472309 403.462677,30.667479 405.427612,26.263004 
	C407.595978,21.402449 411.590179,20.078972 416.632599,23.168743 
	C415.610321,24.772247 414.456543,25.964804 413.304657,27.159182 
	C408.541626,32.097816 406.484955,37.274696 409.749573,44.225246 
	C412.803131,50.726402 411.178406,57.211250 407.039062,63.013344 
z"/>
<path fill="#C18080" opacity="1.000000" stroke="none" 
	d="
M407.010803,63.435005 
	C411.178406,57.211250 412.803131,50.726402 409.749573,44.225246 
	C406.484955,37.274696 408.541626,32.097816 413.304657,27.159182 
	C414.456543,25.964804 415.610321,24.772247 416.975769,23.310431 
	C420.349854,21.244600 423.511383,19.447187 427.264313,17.328571 
	C436.892670,14.640199 445.929596,12.273026 454.966553,9.905857 
	C469.788910,9.727730 484.564453,9.670729 499.079681,13.636187 
	C507.292114,15.879773 514.875610,18.852591 520.709717,26.274174 
	C521.060242,29.900082 521.095032,32.934174 521.129883,35.968262 
	C521.058655,36.397396 520.987427,36.826527 520.857361,37.575630 
	C515.849548,47.022362 508.357758,53.835876 500.343658,60.116386 
	C486.619354,70.871834 473.384460,82.425468 456.490723,88.239326 
	C446.492920,91.679985 436.299194,94.004227 425.684906,91.946342 
	C417.020782,90.266563 409.534210,86.676125 405.937500,77.372559 
	C406.206329,72.643250 406.594452,68.249954 407.010803,63.435005 
M445.324768,55.155579 
	C443.702271,56.547668 441.351288,57.637161 440.619415,59.399178 
	C439.362762,62.424583 437.701508,66.540764 438.843903,68.950325 
	C439.989899,71.367599 444.400208,73.668953 447.301239,73.575645 
	C460.133087,73.162926 470.666748,67.349548 478.552490,57.290939 
	C481.969940,52.931854 480.006744,48.951748 474.029816,47.378098 
	C474.425140,52.030647 471.343384,51.816139 467.994476,52.185055 
	C463.928436,52.632973 459.770721,53.569523 456.006042,55.141102 
	C449.413574,57.893124 447.855072,62.696198 450.798798,69.040428 
	C443.779785,68.741402 441.308136,64.764877 444.305756,58.599056 
	C444.884796,57.407997 445.449432,56.209934 446.132172,54.967266 
	C446.132172,54.967266 445.988434,54.983612 445.324768,55.155579 
M444.653748,35.156284 
	C455.654144,36.847324 465.944031,35.216591 474.629181,27.848833 
	C478.392365,24.656481 477.724701,21.888018 473.047516,19.382372 
	C472.666229,25.426901 468.388611,24.468046 464.700073,23.771172 
	C456.201752,22.165579 448.763336,23.078056 443.925568,31.578253 
	C437.590790,27.166330 443.477234,23.978388 445.174469,20.003519 
	C440.776337,21.255283 437.310516,22.462492 437.020935,27.003078 
	C436.718079,31.751675 439.956787,33.697079 444.653748,35.156284 
M447.936401,19.550018 
	C447.936401,19.550018 447.906372,19.477226 447.936401,19.550018 
M448.486938,53.472771 
	C448.486938,53.472771 448.505646,53.512451 448.486938,53.472771 
z"/>
<path fill="#995B5F" opacity="1.000000" stroke="none" 
	d="
M454.860718,9.579618 
	C445.929596,12.273026 436.892670,14.640199 427.490479,17.079304 
	C425.021484,13.461958 425.885742,10.390512 429.932129,9.413585 
	C436.792084,7.757356 443.356171,3.184211 450.878296,6.509091 
	C452.297546,7.136419 453.469025,8.324210 454.860718,9.579618 
z"/>
<path fill="#995B5F" opacity="1.000000" stroke="none" 
	d="
M521.470947,35.911789 
	C521.095032,32.934174 521.060242,29.900082 520.969177,26.481262 
	C521.898071,24.897808 522.883240,23.699081 523.974792,22.370928 
	C527.347229,27.560730 526.437012,32.226276 521.470947,35.911789 
z"/>
<path fill="#9B5C61" opacity="1.000000" stroke="none" 
	d="
M446.020721,55.015106 
	C445.449432,56.209934 444.884796,57.407997 444.305756,58.599056 
	C441.308136,64.764877 443.779785,68.741402 450.798798,69.040428 
	C447.855072,62.696198 449.413574,57.893124 456.006042,55.141102 
	C459.770721,53.569523 463.928436,52.632973 467.994476,52.185055 
	C471.343384,51.816139 474.425140,52.030647 474.029816,47.378098 
	C480.006744,48.951748 481.969940,52.931854 478.552490,57.290939 
	C470.666748,67.349548 460.133087,73.162926 447.301239,73.575645 
	C444.400208,73.668953 439.989899,71.367599 438.843903,68.950325 
	C437.701508,66.540764 439.362762,62.424583 440.619415,59.399178 
	C441.351288,57.637161 443.702271,56.547668 445.663391,55.078281 
	C446.002045,55.000984 446.020721,55.015102 446.020721,55.015106 
z"/>
<path fill="#99595C" opacity="1.000000" stroke="none" 
	d="
M444.255859,35.057648 
	C439.956787,33.697079 436.718079,31.751675 437.020935,27.003078 
	C437.310516,22.462492 440.776337,21.255283 445.174469,20.003519 
	C443.477234,23.978388 437.590790,27.166330 443.925568,31.578253 
	C448.763336,23.078056 456.201752,22.165579 464.700073,23.771172 
	C468.388611,24.468046 472.666229,25.426901 473.047516,19.382372 
	C477.724701,21.888018 478.392365,24.656481 474.629181,27.848833 
	C465.944031,35.216591 455.654144,36.847324 444.255859,35.057648 
z"/>
<path fill="#99595C" opacity="1.000000" stroke="none" 
	d="
M447.921387,19.513622 
	C447.906372,19.477226 447.936401,19.550018 447.921387,19.513622 
z"/>
<path fill="#9B5C61" opacity="1.000000" stroke="none" 
	d="
M448.496277,53.492611 
	C448.505646,53.512451 448.486938,53.472771 448.496277,53.492611 
z"/>
<path fill="#9B5C61" opacity="1.000000" stroke="none" 
	d="
M445.995239,54.992298 
	C445.988434,54.983612 446.132172,54.967266 446.076447,54.991184 
	C446.020721,55.015102 446.002045,55.000984 445.995239,54.992298 
z"/>
</svg>