<?xml version="1.0" encoding="UTF-8"?>
<svg xmlns="http://www.w3.org/2000/svg"
     viewBox="0 0 512 512"
     role="img"
     aria-label="Pig silhouette">
  <path fill="currentColor"
        d="
        M120 170
        C120 125 165 95 245 95
        H330
        C410 95 465 145 465 225
        C465 275 445 315 405 345
        L395 415
        H350
        L350 370
        H220
        L220 415
        H175
        L180 355
        C145 340 115 320 95 290
        L55 275
        L85 245
        C80 235 78 223 78 210
        C78 190 92 176 120 170
        Z

        M455 185
        a18 18 0 1 1 0.1 0
        "
  />
</svg>
